{
	"asset":{
		"generator":"Khronos glTF Blender I/O v3.6.28",
		"version":"2.0"
	},
	"extensionsUsed":[
		"KHR_materials_transmission",
		"KHR_materials_ior"
	],
	"scene":0,
	"scenes":[
		{
			"name":"Scene",
			"nodes":[
				0,
				1,
				2,
				3,
				4,
				5,
				6,
				7
			]
		}
	],
	"nodes":[
		{
			"mesh":0,
			"name":"Cube",
			"scale":[
				-1.5108678340911865,
				-2.526888847351074,
				-2.526888847351074
			]
		},
		{
			"mesh":1,
			"name":"Cylinder",
			"scale":[
				0.7020837068557739,
				0.7020837068557739,
				0.7020837068557739
			],
			"translation":[
				0,
				2.131260871887207,
				0
			]
		},
		{
			"mesh":2,
			"name":"Cylinder.001",
			"scale":[
				0.35831624269485474,
				0.35831624269485474,
				0.35831624269485474
			],
			"translation":[
				0,
				3.0758094787597656,
				0
			]
		},
		{
			"mesh":3,
			"name":"Cylinder.002",
			"scale":[
				1.0119524002075195,
				0.47450122237205505,
				1.0119524002075195
			],
			"translation":[
				-0.007701116614043713,
				3.3342978954315186,
				-0.021228060126304626
			]
		},
		{
			"name":"Plane",
			"rotation":[
				-0.0028824571054428816,
				0.0018750568851828575,
				-0.6971092224121094,
				0.7169567942619324
			],
			"scale":[
				1.0577963590621948,
				1.0573678016662598,
				1.746155023574829
			],
			"translation":[
				1.5804041624069214,
				0.002550184726715088,
				-0.047377586364746094
			]
		},
		{
			"mesh":4,
			"name":"Plane.001",
			"rotation":[
				0.4978717565536499,
				-0.5010895133018494,
				0.5002545118331909,
				0.5007779598236084
			],
			"scale":[
				1.9621485471725464,
				1.0000083446502686,
				1.0000050067901611
			],
			"translation":[
				1.5963613986968994,
				-0.044662028551101685,
				-0.0410294234752655
			]
		},
		{
			"mesh":5,
			"name":"Text",
			"rotation":[
				0.5,
				0.5,
				-0.5,
				0.4999999701976776
			],
			"scale":[
				0.5115824937820435,
				0.5115824937820435,
				0.5115824937820435
			],
			"translation":[
				1.6017202138900757,
				-0.11364668607711792,
				1.6824554204940796
			]
		},
		{
			"mesh":6,
			"name":"Cylinder.003",
			"scale":[
				-6.0320844650268555,
				-6.0320844650268555,
				-6.0320844650268555
			],
			"translation":[
				0.27518734335899353,
				-8.678071022033691,
				-0.16891054809093475
			]
		}
	],
	"materials":[
		{
			"doubleSided":true,
			"extensions":{
				"KHR_materials_transmission":{
					"transmissionFactor":0.0458715595304966
				},
				"KHR_materials_ior":{
					"ior":1.4500000476837158
				}
			},
			"name":"Material.001",
			"pbrMetallicRoughness":{
				"baseColorFactor":[
					0.05855926126241684,
					0.0604514554142952,
					0.05987384170293808,
					1
				],
				"metallicFactor":0.8715596199035645,
				"roughnessFactor":0.1651376187801361
			}
		},
		{
			"doubleSided":true,
			"extensions":{
				"KHR_materials_transmission":{
					"transmissionFactor":0.6972476840019226
				},
				"KHR_materials_ior":{
					"ior":1.4500000476837158
				}
			},
			"name":"Material.003",
			"pbrMetallicRoughness":{
				"baseColorFactor":[
					0.6925543546676636,
					0.489154189825058,
					0,
					1
				],
				"metallicFactor":0.9541283845901489,
				"roughnessFactor":0.2431192696094513
			}
		},
		{
			"doubleSided":true,
			"extensions":{
				"KHR_materials_transmission":{
					"transmissionFactor":1
				},
				"KHR_materials_ior":{
					"ior":1.4500000476837158
				}
			},
			"name":"Material.002",
			"pbrMetallicRoughness":{
				"baseColorFactor":[
					0.5204318761825562,
					0.49442213773727417,
					0.5138542652130127,
					1
				],
				"metallicFactor":0.9541284441947937,
				"roughnessFactor":0.20183485746383667
			}
		},
		{
			"doubleSided":true,
			"name":"Material.005",
			"pbrMetallicRoughness":{
				"baseColorFactor":[
					0.800000011920929,
					0.800000011920929,
					0.800000011920929,
					1
				],
				"metallicFactor":0.9541284441947937,
				"roughnessFactor":0.25229358673095703
			}
		},
		{
			"doubleSided":true,
			"name":"Material.006",
			"pbrMetallicRoughness":{
				"baseColorFactor":[
					0,
					0.0039183697663247585,
					0.8000000715255737,
					1
				],
				"metallicFactor":0.9724770784378052,
				"roughnessFactor":0.23394495248794556
			}
		},
		{
			"doubleSided":true,
			"extensions":{
				"KHR_materials_transmission":{
					"transmissionFactor":0.4128440022468567
				},
				"KHR_materials_ior":{
					"ior":1.4500000476837158
				}
			},
			"name":"Material.007",
			"pbrMetallicRoughness":{
				"baseColorTexture":{
					"index":0
				},
				"metallicFactor":0,
				"roughnessFactor":0.197247713804245
			}
		}
	],
	"meshes":[
		{
			"name":"Cube",
			"primitives":[
				{
					"attributes":{
						"POSITION":0,
						"NORMAL":1,
						"TEXCOORD_0":2
					},
					"indices":3,
					"material":0
				}
			]
		},
		{
			"name":"Cylinder",
			"primitives":[
				{
					"attributes":{
						"POSITION":4,
						"NORMAL":5,
						"TEXCOORD_0":6
					},
					"indices":7,
					"material":1
				}
			]
		},
		{
			"name":"Cylinder.001",
			"primitives":[
				{
					"attributes":{
						"POSITION":8,
						"NORMAL":9,
						"TEXCOORD_0":10
					},
					"indices":7
				}
			]
		},
		{
			"name":"Cylinder.002",
			"primitives":[
				{
					"attributes":{
						"POSITION":11,
						"NORMAL":12,
						"TEXCOORD_0":13
					},
					"indices":14,
					"material":2
				}
			]
		},
		{
			"name":"Plane.001",
			"primitives":[
				{
					"attributes":{
						"POSITION":15,
						"NORMAL":16,
						"TEXCOORD_0":17
					},
					"indices":18,
					"material":3
				}
			]
		},
		{
			"name":"Text",
			"primitives":[
				{
					"attributes":{
						"POSITION":19,
						"NORMAL":20,
						"TEXCOORD_0":21
					},
					"indices":22,
					"material":4
				}
			]
		},
		{
			"name":"Cylinder.003",
			"primitives":[
				{
					"attributes":{
						"POSITION":23,
						"NORMAL":24,
						"TEXCOORD_0":25
					},
					"indices":26,
					"material":5
				}
			]
		}
	],
	"textures":[
		{
			"sampler":0,
			"source":0
		}
	],
	"images":[
		{
			"bufferView":27,
			"mimeType":"image/jpeg",
			"name":"ThinkstockPhotos-511661914"
		}
	],
	"accessors":[
		{
			"bufferView":0,
			"componentType":5126,
			"count":2904,
			"max":[
				1,
				1,
				1.421150803565979
			],
			"min":[
				-1,
				-1,
				-1.421150803565979
			],
			"type":"VEC3"
		},
		{
			"bufferView":1,
			"componentType":5126,
			"count":2904,
			"type":"VEC3"
		},
		{
			"bufferView":2,
			"componentType":5126,
			"count":2904,
			"type":"VEC2"
		},
		{
			"bufferView":3,
			"componentType":5123,
			"count":4356,
			"type":"SCALAR"
		},
		{
			"bufferView":4,
			"componentType":5126,
			"count":130,
			"max":[
				1,
				1,
				1
			],
			"min":[
				-1,
				-1,
				-1
			],
			"type":"VEC3"
		},
		{
			"bufferView":5,
			"componentType":5126,
			"count":130,
			"type":"VEC3"
		},
		{
			"bufferView":6,
			"componentType":5126,
			"count":130,
			"type":"VEC2"
		},
		{
			"bufferView":7,
			"componentType":5123,
			"count":372,
			"type":"SCALAR"
		},
		{
			"bufferView":8,
			"componentType":5126,
			"count":130,
			"max":[
				1,
				1,
				1
			],
			"min":[
				-1,
				-1,
				-1
			],
			"type":"VEC3"
		},
		{
			"bufferView":9,
			"componentType":5126,
			"count":130,
			"type":"VEC3"
		},
		{
			"bufferView":10,
			"componentType":5126,
			"count":130,
			"type":"VEC2"
		},
		{
			"bufferView":11,
			"componentType":5126,
			"count":1155,
			"max":[
				1,
				1,
				1
			],
			"min":[
				-1,
				-1,
				-1
			],
			"type":"VEC3"
		},
		{
			"bufferView":12,
			"componentType":5126,
			"count":1155,
			"type":"VEC3"
		},
		{
			"bufferView":13,
			"componentType":5126,
			"count":1155,
			"type":"VEC2"
		},
		{
			"bufferView":14,
			"componentType":5123,
			"count":4212,
			"type":"SCALAR"
		},
		{
			"bufferView":15,
			"componentType":5126,
			"count":44,
			"max":[
				1,
				0,
				1
			],
			"min":[
				-1,
				0,
				-1
			],
			"type":"VEC3"
		},
		{
			"bufferView":16,
			"componentType":5126,
			"count":44,
			"type":"VEC3"
		},
		{
			"bufferView":17,
			"componentType":5126,
			"count":44,
			"type":"VEC2"
		},
		{
			"bufferView":18,
			"componentType":5123,
			"count":126,
			"type":"SCALAR"
		},
		{
			"bufferView":19,
			"componentType":5126,
			"count":10134,
			"max":[
				6.64946174621582,
				0,
				0.14037352800369263
			],
			"min":[
				0.03520622104406357,
				0,
				-0.6237820386886597
			],
			"type":"VEC3"
		},
		{
			"bufferView":20,
			"componentType":5126,
			"count":10134,
			"type":"VEC3"
		},
		{
			"bufferView":21,
			"componentType":5126,
			"count":10134,
			"type":"VEC2"
		},
		{
			"bufferView":22,
			"componentType":5123,
			"count":30360,
			"type":"SCALAR"
		},
		{
			"bufferView":23,
			"componentType":5126,
			"count":1058,
			"max":[
				1,
				1,
				1
			],
			"min":[
				-1,
				-1,
				-1
			],
			"type":"VEC3"
		},
		{
			"bufferView":24,
			"componentType":5126,
			"count":1058,
			"type":"VEC3"
		},
		{
			"bufferView":25,
			"componentType":5126,
			"count":1058,
			"type":"VEC2"
		},
		{
			"bufferView":26,
			"componentType":5123,
			"count":4020,
			"type":"SCALAR"
		}
	],
	"bufferViews":[
		{
			"buffer":0,
			"byteLength":34848,
			"byteOffset":0,
			"target":34962
		},
		{
			"buffer":0,
			"byteLength":34848,
			"byteOffset":34848,
			"target":34962
		},
		{
			"buffer":0,
			"byteLength":23232,
			"byteOffset":69696,
			"target":34962
		},
		{
			"buffer":0,
			"byteLength":8712,
			"byteOffset":92928,
			"target":34963
		},
		{
			"buffer":0,
			"byteLength":1560,
			"byteOffset":101640,
			"target":34962
		},
		{
			"buffer":0,
			"byteLength":1560,
			"byteOffset":103200,
			"target":34962
		},
		{
			"buffer":0,
			"byteLength":1040,
			"byteOffset":104760,
			"target":34962
		},
		{
			"buffer":0,
			"byteLength":744,
			"byteOffset":105800,
			"target":34963
		},
		{
			"buffer":0,
			"byteLength":1560,
			"byteOffset":106544,
			"target":34962
		},
		{
			"buffer":0,
			"byteLength":1560,
			"byteOffset":108104,
			"target":34962
		},
		{
			"buffer":0,
			"byteLength":1040,
			"byteOffset":109664,
			"target":34962
		},
		{
			"buffer":0,
			"byteLength":13860,
			"byteOffset":110704,
			"target":34962
		},
		{
			"buffer":0,
			"byteLength":13860,
			"byteOffset":124564,
			"target":34962
		},
		{
			"buffer":0,
			"byteLength":9240,
			"byteOffset":138424,
			"target":34962
		},
		{
			"buffer":0,
			"byteLength":8424,
			"byteOffset":147664,
			"target":34963
		},
		{
			"buffer":0,
			"byteLength":528,
			"byteOffset":156088,
			"target":34962
		},
		{
			"buffer":0,
			"byteLength":528,
			"byteOffset":156616,
			"target":34962
		},
		{
			"buffer":0,
			"byteLength":352,
			"byteOffset":157144,
			"target":34962
		},
		{
			"buffer":0,
			"byteLength":252,
			"byteOffset":157496,
			"target":34963
		},
		{
			"buffer":0,
			"byteLength":121608,
			"byteOffset":157748,
			"target":34962
		},
		{
			"buffer":0,
			"byteLength":121608,
			"byteOffset":279356,
			"target":34962
		},
		{
			"buffer":0,
			"byteLength":81072,
			"byteOffset":400964,
			"target":34962
		},
		{
			"buffer":0,
			"byteLength":60720,
			"byteOffset":482036,
			"target":34963
		},
		{
			"buffer":0,
			"byteLength":12696,
			"byteOffset":542756,
			"target":34962
		},
		{
			"buffer":0,
			"byteLength":12696,
			"byteOffset":555452,
			"target":34962
		},
		{
			"buffer":0,
			"byteLength":8464,
			"byteOffset":568148,
			"target":34962
		},
		{
			"buffer":0,
			"byteLength":8040,
			"byteOffset":576612,
			"target":34963
		},
		{
			"buffer":0,
			"byteLength":524982,
			"byteOffset":584652
		}
	],
	"samplers":[
		{
			"magFilter":9729,
			"minFilter":9987,
			"wrapS":33071,
			"wrapT":33071
		}
	],
	"buffers":[
		{
			"byteLength":1109636,
			"uri":"data:application/octet-stream;base64,"
		}
	]
}
